<svg xmlns="http://www.w3.org/2000/svg" width="1440" height="390" viewBox="0 0 1440 390" role="img" aria-labelledby="title description">
  <title id="title">Jithin Seemakurthi — Full-stack, AI, and ECE</title>
  <desc id="description">A dark navy and neon cyan portfolio banner with an animated circuit constellation. Click to open the interactive 3D portfolio.</desc>
  <defs>
    <linearGradient id="background" x1="0" y1="0" x2="1" y2="1"><stop stop-color="#080b12" /><stop offset=".57" stop-color="#101626" /><stop offset="1" stop-color="#151027" /></linearGradient>
    <linearGradient id="neon" x1="0" y1="0" x2="1" y2=".4"><stop stop-color="#5be6f4" /><stop offset=".55" stop-color="#a891ff" /><stop offset="1" stop-color="#e08be0" /></linearGradient>
    <radialGradient id="glow"><stop stop-color="#5be6f4" stop-opacity=".18" /><stop offset=".55" stop-color="#8e70fb" stop-opacity=".08" /><stop offset="1" stop-color="#8e70fb" stop-opacity="0" /></radialGradient>
    <pattern id="grid" width="40" height="40" patternUnits="userSpaceOnUse"><path d="M40 0H0V40" fill="none" stroke="#9bb0d1" stroke-opacity=".055" /><circle cx="0" cy="0" r="1" fill="#5be6f4" fill-opacity=".15" /></pattern>
    <filter id="blur"><feGaussianBlur stdDeviation="8" /></filter>
  </defs>
  <rect width="1440" height="390" rx="25" fill="url(#background)" /><rect width="1440" height="390" rx="25" fill="url(#grid)" /><ellipse cx="1135" cy="206" rx="390" ry="280" fill="url(#glow)" />
  <path d="M0 345C286 294 486 377 741 338s452-43 699 3v49H0z" fill="#05070c" fill-opacity=".4" /><path d="M0 345C286 294 486 377 741 338s452-43 699 3" fill="none" stroke="url(#neon)" stroke-opacity=".2" />
  <g font-family="Manrope,Inter,ui-sans-serif,system-ui,sans-serif">
    <rect x="92" y="67" width="239" height="31" rx="15" fill="#111c2a" stroke="#5be6f4" stroke-opacity=".32" /><circle cx="112" cy="82" r="3.5" fill="#5be6f4"><animate attributeName="opacity" values=".55;1;.55" dur="2.8s" repeatCount="indefinite" /></circle>
    <text x="127" y="86" fill="#c6d6e9" font-size="10" font-weight="700" letter-spacing="1.6">FULL-STACK · AI SYSTEMS · ECE</text>
    <text x="89" y="171" fill="#f0f4fc" font-size="56" font-weight="700" letter-spacing="-2">Jithin Seemakurthi</text>
    <rect x="94" y="194" width="122" height="3" rx="1.5" fill="url(#neon)" />
    <text x="94" y="239" fill="#dde5f2" font-size="21" font-weight="500">Software for the screen. Intelligence for the system.</text>
    <text x="94" y="275" fill="#a6b4c8" font-size="14" font-weight="500" letter-spacing=".2">Full-stack products  ·  Agentic AI  ·  Connected electronics</text>
    <text x="94" y="344" fill="#8290a7" font-family="DM Mono,monospace" font-size="10" font-weight="500" letter-spacing="1.8">BUILDING AT THE EDGE OF SOFTWARE &amp; HARDWARE</text>
  </g>
  <g fill="none" stroke="url(#neon)" stroke-width="1">
    <ellipse cx="1160" cy="194" rx="184" ry="96" stroke-opacity=".35" stroke-dasharray="2 11"><animateTransform attributeName="transform" type="rotate" values="0 1160 194;360 1160 194" dur="82s" repeatCount="indefinite" /></ellipse>
    <ellipse cx="1160" cy="194" rx="132" ry="66" stroke-opacity=".2" transform="rotate(54 1160 194)" />
    <path d="M1003 153c68 26 91 95 161 62s84-84 165-50M1004 246c72-43 100-70 167-51s98 87 160 45" stroke-opacity=".3" /><path d="M1090 104c33 64 42 123 78 185m91-167c-54 50-64 106-32 174" stroke-opacity=".18" />
  </g>
  <circle cx="1160" cy="194" r="77" fill="url(#glow)" /><circle cx="1160" cy="194" r="30" fill="#111a27" stroke="url(#neon)" stroke-opacity=".72" stroke-width="1.5" />
  <circle cx="1160" cy="194" r="7" fill="#5be6f4" filter="url(#blur)" opacity=".8" /><circle cx="1160" cy="194" r="5" fill="#b6fbff"><animate attributeName="r" values="4.5;7;4.5" dur="3.8s" repeatCount="indefinite" /><animate attributeName="opacity" values=".55;1;.55" dur="3.8s" repeatCount="indefinite" /></circle>
  <g font-family="DM Mono,monospace" font-size="9" font-weight="500" letter-spacing="1">
    <g><rect x="1031" y="68" width="132" height="33" rx="10" fill="#101a29" stroke="#5be6f4" stroke-opacity=".34" /><text x="1047" y="88" fill="#ddfaff">FULL-STACK</text></g>
    <g><rect x="1254" y="148" width="118" height="33" rx="10" fill="#151327" stroke="#ad8aff" stroke-opacity=".39" /><text x="1270" y="168" fill="#e5dfff">AI / AGENTS</text></g>
    <g><rect x="1013" y="276" width="132" height="33" rx="10" fill="#101a29" stroke="#61d7b2" stroke-opacity=".34" /><text x="1029" y="296" fill="#d5fff0">ECE / EMBEDDED</text></g>
    <g><rect x="1214" y="278" width="121" height="33" rx="10" fill="#171328" stroke="#e08be0" stroke-opacity=".34" /><text x="1230" y="298" fill="#f6d9f3">CONNECTED</text></g>
  </g>
  <g fill="#9cecf3"><circle cx="1013" cy="153" r="2.5"><animate attributeName="opacity" values=".35;1;.35" dur="4s" repeatCount="indefinite" /></circle><circle cx="1330" cy="163" r="2.5"><animate attributeName="opacity" values=".4;1;.4" dur="4.7s" repeatCount="indefinite" /></circle><circle cx="1004" cy="246" r="2.5"><animate attributeName="opacity" values=".4;1;.4" dur="3.9s" repeatCount="indefinite" /></circle><circle cx="1331" cy="252" r="2.5"><animate attributeName="opacity" values=".35;1;.35" dur="5s" repeatCount="indefinite" /></circle></g>
  <a href="https://jithinseemakurthi.github.io/jithinseemakurthi/" target="_blank" rel="noopener noreferrer" aria-label="Open Jithin's interactive 3D portfolio"><rect x="1156" y="330" width="222" height="34" rx="17" fill="#111b28" stroke="#5be6f4" stroke-opacity=".38" /><text x="1176" y="351" fill="#c9edf0" font-family="DM Mono,monospace" font-size="9" font-weight="500" letter-spacing="1">OPEN INTERACTIVE 3D PORTFOLIO ↗</text></a>
</svg>
